# xmcd
#
# Track frame offsets:
#	150
#	14335
#	34230
#	49487
#	66085
#	83765
#	95595
#	109777
#	122672
#	139465
#	153007
#	169192
#	183235
#	201347
#	214035
#	230807
#	247387
#	268782
#	279557
#	295485
#
# Disc length: 4252 seconds
#
# Revision: 2
# Processed by: cddbd v1.5.2PL0 Copyright (c) Steve Scherf et al.
# Submitted via: audiograbber 1.83.01
#
DISCID=39109a14
DTITLE=Kris Kristofferson - T H E   C O U N T R Y   C O L L E C T I ON     1 9 
DTITLE=9 0
DYEAR=1998
DGENRE=Country Folk
TTITLE0=Mean Old Man  1986
TTITLE1=Shipwrecked In The Eighties  1986
TTITLE2=They Killed Him  1986
TTITLE3=What About Me  1986
TTITLE4=El Gavilan (The Hawk)  1986
TTITLE5=El Coyote  1986
TTITLE6=Anthem 84  1986
TTITLE7=The Heart  1986
TTITLE8=The Old Road  1986
TTITLE9=Love Is The Way  1986
TTITLE10=The Eagle And the Bear  1990
TTITLE11=Third World Warrior  1990
TTITLE12=Aguila Del Norte  1990
TTITLE13=The Hero  1990
TTITLE14=Don't Let The Bastards (Get You Down)  1990
TTITLE15=Love Of Money  1990
TTITLE16=Third World War  1990
TTITLE17=Jesse Jackson  1990
TTITLE18=Mal Sacate  1990
TTITLE19=Sandinista  1990
EXTD=
EXTT0=
EXTT1=
EXTT2=
EXTT3=
EXTT4=
EXTT5=
EXTT6=
EXTT7=
EXTT8=
EXTT9=
EXTT10=
EXTT11=
EXTT12=
EXTT13=
EXTT14=
EXTT15=
EXTT16=
EXTT17=
EXTT18=
EXTT19=
PLAYORDER=
